<?xml version="1.0" encoding="UTF-8" standalone="no"?>
<!-- Created with Inkscape (http://www.inkscape.org/) -->

<svg
   xmlns:dc="http://purl.org/dc/elements/1.1/"
   xmlns:cc="http://creativecommons.org/ns#"
   xmlns:rdf="http://www.w3.org/1999/02/22-rdf-syntax-ns#"
   xmlns:svg="http://www.w3.org/2000/svg"
   xmlns="http://www.w3.org/2000/svg"
   xmlns:sodipodi="http://sodipodi.sourceforge.net/DTD/sodipodi-0.dtd"
   xmlns:inkscape="http://www.inkscape.org/namespaces/inkscape"
   width="114.36196mm"
   height="113.79015mm"
   viewBox="0 0 405.21955 403.1934"
   id="svg2"
   version="1.1"
   inkscape:version="0.91 r13725"
   sodipodi:docname="bb-square-thick.svg">
  <defs
     id="defs4">
    <marker
       inkscape:stockid="DotL"
       orient="auto"
       refY="0"
       refX="0"
       id="DotL"
       style="overflow:visible"
       inkscape:isstock="true">
      <path
         id="path4231"
         d="m -2.5,-1 c 0,2.76 -2.24,5 -5,5 -2.76,0 -5,-2.24 -5,-5 0,-2.76 2.24,-5 5,-5 2.76,0 5,2.24 5,5 z"
         style="fill:#004000;fill-opacity:0.85897432;fill-rule:evenodd;stroke:#004000;stroke-width:1pt;stroke-opacity:0.85897432"
         transform="matrix(0.8,0,0,0.8,5.92,0.8)"
         inkscape:connector-curvature="0" />
    </marker>
    <marker
       inkscape:stockid="Tail"
       orient="auto"
       refY="0"
       refX="0"
       id="Tail"
       style="overflow:visible"
       inkscape:isstock="true">
      <g
         id="g4206"
         transform="scale(-1.2,-1.2)"
         style="fill:#004000;fill-opacity:0.85897432;stroke:#004000;stroke-opacity:0.85897432">
        <path
           id="path4208"
           d="M -3.8048674,-3.9585227 0.54352094,0"
           style="fill:#004000;fill-opacity:0.85897432;fill-rule:evenodd;stroke:#004000;stroke-width:0.80000001;stroke-linecap:round;stroke-opacity:0.85897432"
           inkscape:connector-curvature="0" />
        <path
           id="path4210"
           d="M -1.2866832,-3.9585227 3.0617053,0"
           style="fill:#004000;fill-opacity:0.85897432;fill-rule:evenodd;stroke:#004000;stroke-width:0.80000001;stroke-linecap:round;stroke-opacity:0.85897432"
           inkscape:connector-curvature="0" />
        <path
           id="path4212"
           d="M 1.3053582,-3.9585227 5.6537466,0"
           style="fill:#004000;fill-opacity:0.85897432;fill-rule:evenodd;stroke:#004000;stroke-width:0.80000001;stroke-linecap:round;stroke-opacity:0.85897432"
           inkscape:connector-curvature="0" />
        <path
           id="path4214"
           d="M -3.8048674,4.1775838 0.54352094,0.21974226"
           style="fill:#004000;fill-opacity:0.85897432;fill-rule:evenodd;stroke:#004000;stroke-width:0.80000001;stroke-linecap:round;stroke-opacity:0.85897432"
           inkscape:connector-curvature="0" />
        <path
           id="path4216"
           d="M -1.2866832,4.1775838 3.0617053,0.21974226"
           style="fill:#004000;fill-opacity:0.85897432;fill-rule:evenodd;stroke:#004000;stroke-width:0.80000001;stroke-linecap:round;stroke-opacity:0.85897432"
           inkscape:connector-curvature="0" />
        <path
           id="path4218"
           d="M 1.3053582,4.1775838 5.6537466,0.21974226"
           style="fill:#004000;fill-opacity:0.85897432;fill-rule:evenodd;stroke:#004000;stroke-width:0.80000001;stroke-linecap:round;stroke-opacity:0.85897432"
           inkscape:connector-curvature="0" />
      </g>
    </marker>
  </defs>
  <sodipodi:namedview
     id="base"
     pagecolor="#ffffff"
     bordercolor="#666666"
     borderopacity="1.0"
     inkscape:pageopacity="0.0"
     inkscape:pageshadow="2"
     inkscape:zoom="0.7071068"
     inkscape:cx="-181.8978"
     inkscape:cy="170.09506"
     inkscape:document-units="px"
     inkscape:current-layer="layer1"
     showgrid="true"
     inkscape:window-width="1355"
     inkscape:window-height="839"
     inkscape:window-x="18"
     inkscape:window-y="43"
     inkscape:window-maximized="0"
     fit-margin-top="0"
     fit-margin-left="0"
     fit-margin-right="0"
     fit-margin-bottom="0">
    <inkscape:grid
       type="xygrid"
       id="grid3344"
       originx="-157.39023"
       originy="-617.39677"
       enabled="false" />
  </sodipodi:namedview>
  <metadata
     id="metadata7">
    <rdf:RDF>
      <cc:Work
         rdf:about="">
        <dc:format>image/svg+xml</dc:format>
        <dc:type
           rdf:resource="http://purl.org/dc/dcmitype/StillImage" />
        <dc:title></dc:title>
      </cc:Work>
    </rdf:RDF>
  </metadata>
  <g
     inkscape:label="Layer 1"
     inkscape:groupmode="layer"
     id="layer1"
     transform="translate(-157.39023,-31.771993)">
    <path
       style="opacity:1;fill:none;fill-rule:evenodd;stroke:#004000;stroke-width:5.80748031;stroke-linecap:round;stroke-linejoin:round;stroke-miterlimit:4;stroke-dasharray:none;stroke-opacity:0.85897432"
       d="M 360,34.362205 160,232.3622 l 200,200 200,-200 z"
       id="path4148"
       inkscape:connector-curvature="0"
       sodipodi:nodetypes="ccccc" />
    <path
       style="stroke:#000000;stroke-width:4.5;stroke-miterlimit:4;stroke-dasharray:none;stroke-opacity:0.87820512"
       id="path4164"
       d="m 299.35853,325.17071 c 9.92958,-7.61681 18.57532,-16.64882 26.64384,-26.16901 6.93048,-8.2825 11.84659,-17.85606 16.91688,-27.30564 3.73954,-5.58288 13.05785,-15.71727 18.25222,-10.06584 1.31862,1.43465 2.05152,3.77361 3.00969,5.44835 6.70382,8.65416 12.1337,18.27014 19.06138,26.76151 2.21459,2.71446 4.6955,5.2003 7.04325,7.80045 11.34671,11.24817 21.23233,16.89153 36.96001,18.61324 6.16326,0.83653 11.6075,-0.87309 17.21793,-3.13391 8.55335,-4.385 -6.86838,4.26303 -10.51716,5.9809 -0.76559,0.36045 1.22192,-1.18677 1.70164,-1.88385 2.12315,-3.08518 2.43524,-6.93393 2.98647,-10.50806 1.57975,-12.60453 -0.058,-23.05297 -4.35003,-34.91138 -4.61987,-10.65551 -11.9746,-19.66786 -21.61159,-26.18579 -2.25549,-1.5255 -4.66229,-2.81433 -6.99344,-4.22149 -16.34896,-9.1287 -33.79949,-16.18704 -51.438,-22.39685 -8.06938,-2.78919 -5.98195,-2.11646 -13.49766,-4.54385 -0.93296,-0.30132 -8.65505,-2.24452 -9.2843,-3.66771 -0.3196,-0.72283 -0.0233,-1.5805 -0.0349,-2.37075 0.68017,-0.74541 1.24918,-1.61008 2.04052,-2.23621 1.12104,-0.88701 2.40185,-1.55364 3.64383,-2.26145 6.36336,-3.62652 12.77762,-7.16299 19.16907,-10.73977 1.75195,-0.98042 6.98283,-3.96442 5.26113,-2.93181 -15.30741,9.18079 -7.70436,4.35698 -2.78264,1.13033 6.82215,-5.11133 13.20966,-11.04062 17.34593,-18.60808 2.61953,-4.79252 2.95294,-6.82712 4.55769,-12.04171 2.42266,-9.82063 3.18631,-20.37487 -2.08889,-29.46859 -0.95371,-1.64405 -2.22373,-3.08302 -3.3356,-4.62454 -7.72467,-8.56593 -18.61873,-11.96748 -29.59762,-14.07321 -4.23727,-0.57218 -8.6942,-1.39703 -12.90871,-0.11747 -1.04746,0.31802 -3.91512,1.9541 -2.96884,1.4038 14.10626,-8.20344 15.5375,-9.82323 10.25563,-4.94438 -4.10385,5.7556 -4.8663,13.05504 -7.15694,19.59435 -0.64794,1.84972 -1.4446,3.64393 -2.1669,5.46589 -4.92552,11.91658 -11.83791,22.8095 -19.2996,33.26839 -7.53313,10.23012 -15.85547,19.77317 -25.59036,27.94748 -10.38414,7.37707 -22.14697,16.65478 -35.55205,15.97634 -7.11893,-1.26544 -8.77372,-8.13999 -9.90824,-14.29514 -1.13424,-7.4984 -1.19271,-14.97926 0.44094,-22.38452 2.11863,-7.54731 7.59066,-12.69214 13.91425,-16.89306 15.33023,-9.72603 18.2093,-11.16937 33.38931,-11.38945 9.63408,0.0712 19.26805,0.13717 28.90248,0.14496 7.04,-0.24375 14.14652,0.37099 21.1605,-0.36453 0,0 -13.9598,10.30963 -13.9598,10.30963 l 0,0 c -6.9419,0.35938 -13.89938,-0.12399 -20.84716,-0.0391 -9.70164,-0.0734 -19.40639,-0.17685 -29.10641,0.0688 -3.3126,0.12976 -6.63967,0.21389 -9.91694,0.77029 -6.39934,1.08646 -16.17023,6.88177 6.46278,-5.73734 -6.39045,3.73474 -12.12282,8.42265 -14.52624,15.69522 -1.83372,7.18413 -1.92612,14.41953 -0.77702,21.75451 1.01127,5.45106 2.29106,11.52588 8.77795,12.22807 2.81183,-0.0314 3.25183,0.12312 6.09079,-0.60452 5.17545,-1.3265 18.89418,-8.46322 -3.94644,3.67235 -1.37002,0.72791 2.55176,-1.76518 3.82764,-2.64777 10.05211,-7.93222 18.5287,-17.41539 26.13805,-27.7029 7.47419,-10.27314 14.24164,-21.08047 19.23196,-32.80276 0.72437,-1.76347 1.54523,-3.49033 2.17309,-5.29043 2.30791,-6.61683 2.80259,-13.89037 6.25927,-20.07476 6.04766,-7.20774 2.18612,-3.12978 19.27652,-12.36409 4.84732,-2.61911 11.04711,-0.84924 16.09165,-0.22614 11.24596,2.46365 22.33433,6.27649 30.14309,15.20602 1.15831,1.63669 2.47427,3.17252 3.47494,4.91008 5.45314,9.46881 4.94884,20.31047 2.49404,30.5882 -1.42923,5.10462 -1.8738,7.689 -4.29363,12.4248 -3.98823,7.80528 -10.36466,13.95703 -17.18385,19.28761 -11.5639,7.83913 -4.72244,3.39342 -25.37361,15.24197 -1.79995,1.03272 -7.18107,4.15525 -5.44402,3.0199 3.18214,-2.07986 6.55975,-3.84594 9.7855,-5.8575 1.81485,-1.13174 -6.08497,3.44374 -5.61697,3.10163 -0.32582,0.17708 -0.95258,0.16123 -0.97744,0.53122 -0.0464,0.68981 2.59043,1.64246 3.67493,2.08714 5.72092,2.34575 11.59795,4.28597 17.33694,6.58553 17.60802,6.61176 35.20256,13.52832 51.72726,22.57194 2.40313,1.43173 4.88849,2.73368 7.20939,4.29518 9.90485,6.66397 17.58215,15.91132 22.38083,26.81894 4.30002,11.90156 6.25369,22.73043 5.05961,35.42781 -1.5297,16.13801 -4.43155,16.41942 -22.98048,24.61299 -5.68961,2.13566 -11.33445,3.36561 -17.43338,2.20405 -15.76192,-2.68274 -25.00052,-8.98409 -36.34369,-20.36033 -2.4111,-2.61633 -4.92073,-5.1452 -7.2333,-7.849 -7.1985,-8.41633 -13.34509,-17.70856 -20.69665,-26.00432 -0.76884,-1.20743 -1.43598,-2.47786 -2.21038,-3.68172 -0.13569,-0.21096 -0.26756,-0.4746 -0.50376,-0.559 -0.12489,-0.0446 -0.39968,0.34471 -0.28571,0.27688 4.70058,-2.79727 9.30059,-5.76504 14.05454,-8.47061 0.55261,-0.3145 -0.94415,0.85192 -1.41622,1.27788 -5.96845,9.33278 -10.63333,19.51766 -17.87627,28.02626 -7.70942,9.2571 -15.91921,18.08117 -25.11028,25.89699 0,0 -16.40221,6.58233 -16.40221,6.58233 z"
       inkscape:connector-curvature="0" />
  </g>
</svg>
