<?xml version="1.0" encoding="UTF-8" standalone="no"?>
<!-- Created with Inkscape (http://www.inkscape.org/) -->

<svg
   xmlns:dc="http://purl.org/dc/elements/1.1/"
   xmlns:cc="http://creativecommons.org/ns#"
   xmlns:rdf="http://www.w3.org/1999/02/22-rdf-syntax-ns#"
   xmlns:svg="http://www.w3.org/2000/svg"
   xmlns="http://www.w3.org/2000/svg"
   xmlns:sodipodi="http://sodipodi.sourceforge.net/DTD/sodipodi-0.dtd"
   xmlns:inkscape="http://www.inkscape.org/namespaces/inkscape"
   width="114.36196mm"
   height="113.79015mm"
   viewBox="0 0 405.21955 403.1934"
   id="svg2"
   version="1.1"
   inkscape:version="0.91 r13725"
   sodipodi:docname="bb-square.svg">
  <defs
     id="defs4" />
  <sodipodi:namedview
     id="base"
     pagecolor="#ffffff"
     bordercolor="#666666"
     borderopacity="1.0"
     inkscape:pageopacity="0.0"
     inkscape:pageshadow="2"
     inkscape:zoom="0.7071068"
     inkscape:cx="29.52712"
     inkscape:cy="170.09506"
     inkscape:document-units="px"
     inkscape:current-layer="layer1"
     showgrid="true"
     inkscape:window-width="1355"
     inkscape:window-height="839"
     inkscape:window-x="-2"
     inkscape:window-y="0"
     inkscape:window-maximized="0"
     fit-margin-top="0"
     fit-margin-left="0"
     fit-margin-right="0"
     fit-margin-bottom="0">
    <inkscape:grid
       type="xygrid"
       id="grid3344"
       originx="-157.39023"
       originy="-617.39677"
       enabled="false" />
  </sodipodi:namedview>
  <metadata
     id="metadata7">
    <rdf:RDF>
      <cc:Work
         rdf:about="">
        <dc:format>image/svg+xml</dc:format>
        <dc:type
           rdf:resource="http://purl.org/dc/dcmitype/StillImage" />
        <dc:title></dc:title>
      </cc:Work>
    </rdf:RDF>
  </metadata>
  <g
     inkscape:label="Layer 1"
     inkscape:groupmode="layer"
     id="layer1"
     transform="translate(-157.39023,-31.771993)">
    <path
       style="opacity:1;fill:none;fill-rule:evenodd;stroke:#004000;stroke-width:4.42443132;stroke-linecap:round;stroke-linejoin:round;stroke-miterlimit:4;stroke-dasharray:none;stroke-opacity:0.85897432"
       d="M 311.67859,33.670709 159.3085,184.51709 311.67859,336.88718 464.04868,184.51709 Z"
       id="path4148"
       inkscape:connector-curvature="0"
       sodipodi:nodetypes="ccccc" />
    <path
       style="stroke:#000000;stroke-width:0;stroke-miterlimit:4;stroke-dasharray:none;stroke-opacity:0.87820512"
       id="path4164"
       d="m 275.40103,250.07147 c 6.65812,-5.10733 12.45538,-11.1636 17.8656,-17.54721 4.64712,-5.55369 7.94354,-11.97309 11.34334,-18.30936 2.50749,-3.74351 8.75573,-10.53896 12.23873,-6.74948 0.88418,0.96198 1.37562,2.53033 2.0181,3.6533 4.49514,5.80291 8.13606,12.25075 12.78131,17.9445 1.48495,1.82014 3.14849,3.48698 4.72273,5.23047 7.60836,7.54228 14.237,11.32634 24.78295,12.48081 4.13267,0.56092 7.78322,-0.58544 11.5452,-2.10139 5.73532,-2.9403 -4.60548,2.8585 -7.05211,4.01039 -0.51335,0.2417 0.81934,-0.79577 1.14101,-1.26318 1.42364,-2.06872 1.63291,-4.64944 2.00253,-7.04601 1.05927,-8.45177 -0.0389,-15.4578 -2.91684,-23.40927 -3.09778,-7.14488 -8.02938,-13.18797 -14.49131,-17.55846 -1.51238,-1.0229 -3.12622,-1.88711 -4.68934,-2.83066 -10.96253,-6.1211 -22.66371,-10.85396 -34.49093,-15.01784 -5.41079,-1.87025 -4.0111,-1.41916 -9.05064,-3.04681 -0.62558,-0.20205 -5.8035,-1.50503 -6.22543,-2.45932 -0.21431,-0.48469 -0.0156,-1.05978 -0.0234,-1.58967 0.45608,-0.49983 0.83762,-1.07962 1.36824,-1.49946 0.7517,-0.59477 1.61052,-1.04177 2.44331,-1.51638 4.26685,-2.4317 8.56783,-4.80302 12.85352,-7.20138 1.17474,-0.6574 4.68222,-2.65828 3.52776,-1.96588 -10.26414,6.15604 -5.16603,2.92151 -1.86585,0.75793 4.57448,-3.42732 8.85752,-7.40311 11.63103,-12.47735 1.75649,-3.21355 1.98005,-4.57782 3.05609,-8.07438 1.62448,-6.58506 2.13653,-13.66204 -1.40067,-19.75969 -0.6395,-1.10239 -1.49109,-2.06727 -2.23663,-3.10091 -5.17966,-5.74375 -12.4845,-8.0246 -19.84621,-9.43656 -2.84124,-0.38367 -5.82976,-0.93676 -8.65573,-0.0788 -0.70236,0.21324 -2.62522,1.31029 -1.99071,0.94129 9.45873,-5.50068 10.41842,-6.58681 6.87675,-3.31537 -2.75177,3.85932 -3.26302,8.75385 -4.79897,13.13868 -0.43447,1.2403 -0.96866,2.44338 -1.45298,3.66506 -3.30273,7.99047 -7.93773,15.29455 -12.94104,22.30759 -5.05122,6.85964 -10.63163,13.25858 -17.15921,18.73973 -6.96292,4.94658 -14.85029,11.1676 -23.83886,10.71268 -4.77348,-0.84852 -5.88307,-5.45814 -6.64381,-9.58538 -0.76054,-5.02793 -0.79975,-10.0441 0.29567,-15.00958 1.42061,-5.06072 5.08979,-8.51051 9.32998,-11.32737 10.27944,-6.52163 12.20995,-7.48944 22.38866,-7.63701 6.45998,0.0477 12.91988,0.092 19.3801,0.0972 4.72056,-0.16344 9.48572,0.24876 14.18883,-0.24443 0,0 -9.36052,6.91296 -9.36052,6.91296 l 0,0 c -4.65478,0.24097 -9.32001,-0.0831 -13.97873,-0.0262 -6.50528,-0.0492 -13.01264,-0.11858 -19.51683,0.0461 -2.22122,0.087 -4.45213,0.14342 -6.64965,0.51651 -4.29097,0.72851 -10.84269,4.61446 4.33351,-3.84708 -4.28501,2.50427 -8.12876,5.64767 -9.74033,10.52417 -1.22958,4.81721 -1.29153,9.66879 -0.52102,14.58714 0.67809,3.65512 1.53623,7.7285 5.88591,8.19934 1.88543,-0.0211 2.18046,0.0826 4.08408,-0.40535 3.47032,-0.88947 12.66919,-5.67488 -2.64622,2.46243 -0.91864,0.48809 1.71104,-1.18361 2.56656,-1.77542 6.74029,-5.31882 12.42413,-11.67761 17.52645,-18.57573 5.0117,-6.88849 9.54951,-14.13517 12.89569,-21.99537 0.48571,-1.18246 1.03613,-2.34038 1.45713,-3.54741 1.54753,-4.43681 1.87923,-9.31397 4.19705,-13.46081 4.05516,-4.83303 1.46587,-2.09862 12.92556,-8.29054 3.2503,-1.7562 7.40747,-0.56945 10.79,-0.15164 7.5408,1.65196 14.97593,4.2086 20.21197,10.19616 0.77668,1.09745 1.65908,2.12728 2.33006,3.29237 3.65652,6.34916 3.31837,13.61886 1.67234,20.51043 -0.95835,3.42282 -1.25645,5.15574 -2.87902,8.33125 -2.67425,5.23371 -6.94986,9.35866 -11.52236,12.933 -7.75399,5.2564 -3.16656,2.2754 -17.01387,10.22026 -1.20692,0.69247 -4.81515,2.78623 -3.6504,2.02494 2.13374,-1.39461 4.39854,-2.57883 6.56151,-3.92765 1.21692,-0.75887 -4.08018,2.30914 -3.76637,2.07975 -0.21847,0.11874 -0.63873,0.10811 -0.6554,0.3562 -0.0311,0.46254 1.73697,1.10132 2.46416,1.3995 3.83607,1.5729 7.77682,2.87389 11.62501,4.41582 11.80678,4.43341 23.60451,9.0712 34.68488,15.13525 1.61139,0.96003 3.2779,1.83303 4.83415,2.88007 6.64153,4.46841 11.78942,10.66908 15.0071,17.98301 2.88331,7.9804 4.19331,15.24152 3.39264,23.75555 -1.02571,10.82108 -2.9715,11.00978 -15.40919,16.50384 -3.81508,1.43204 -7.60013,2.25676 -11.68967,1.47789 -10.56891,-1.79887 -16.7637,-6.02413 -24.36968,-13.65229 -1.61673,-1.75434 -3.29952,-3.45003 -4.85018,-5.26302 -4.82683,-5.64344 -8.94833,-11.87419 -13.8778,-17.43678 -0.51554,-0.80962 -0.96288,-1.66149 -1.48214,-2.46872 -0.091,-0.14146 -0.17941,-0.31823 -0.33779,-0.37483 -0.0837,-0.0299 -0.26799,0.23114 -0.19157,0.18566 3.15189,-1.87567 6.23636,-3.86566 9.42404,-5.67983 0.37055,-0.21089 -0.63308,0.57124 -0.94962,0.85686 -4.00205,6.25795 -7.13001,13.08725 -11.98665,18.79256 -5.16943,6.2072 -10.67437,12.12404 -16.83729,17.36481 0,0 -10.99824,4.41368 -10.99824,4.41368 z"
       inkscape:connector-curvature="0" />
  </g>
</svg>
